<?xml version="1.0" encoding="UTF-8" standalone="no"?>
<!-- Created with Inkscape (http://www.inkscape.org/) -->

<svg
   xmlns:dc="http://purl.org/dc/elements/1.1/"
   xmlns:cc="http://creativecommons.org/ns#"
   xmlns:rdf="http://www.w3.org/1999/02/22-rdf-syntax-ns#"
   xmlns:svg="http://www.w3.org/2000/svg"
   xmlns="http://www.w3.org/2000/svg"
   xmlns:sodipodi="http://sodipodi.sourceforge.net/DTD/sodipodi-0.dtd"
   xmlns:inkscape="http://www.inkscape.org/namespaces/inkscape"
   width="16"
   height="16"
   id="svg2"
   version="1.1"
   inkscape:version="0.48.1 r9760"
   sodipodi:docname="all-none.svg"
   inkscape:export-filename="/home/panzi/src/html/magnatune/all-none.png"
   inkscape:export-xdpi="90"
   inkscape:export-ydpi="90">
  <defs
     id="defs4">
    <inkscape:path-effect
       effect="spiro"
       id="path-effect3875"
       is_visible="true" />
    <filter
       inkscape:collect="always"
       id="filter3842"
       x="-0.15345"
       width="1.3069"
       y="-0.16368"
       height="1.32736">
      <feGaussianBlur
         inkscape:collect="always"
         stdDeviation="0.76725"
         id="feGaussianBlur3844" />
    </filter>
    <filter
       inkscape:collect="always"
       id="filter3963"
       x="-0.1518"
       width="1.3036"
       y="-0.1656"
       height="1.3312">
      <feGaussianBlur
         inkscape:collect="always"
         stdDeviation="0.759"
         id="feGaussianBlur3965" />
    </filter>
    <filter
       inkscape:collect="always"
       id="filter4006"
       x="-0.14708571"
       width="1.2941714"
       y="-0.1716"
       height="1.3432">
      <feGaussianBlur
         inkscape:collect="always"
         stdDeviation="0.858"
         id="feGaussianBlur4008" />
    </filter>
  </defs>
  <sodipodi:namedview
     id="base"
     pagecolor="#ffffff"
     bordercolor="#666666"
     borderopacity="1.0"
     inkscape:pageopacity="0.0"
     inkscape:pageshadow="2"
     inkscape:zoom="16"
     inkscape:cx="7.76312"
     inkscape:cy="3.9267771"
     inkscape:document-units="px"
     inkscape:current-layer="layer3"
     showgrid="true"
     showborder="true"
     inkscape:window-width="1084"
     inkscape:window-height="964"
     inkscape:window-x="359"
     inkscape:window-y="25"
     inkscape:window-maximized="0"
     borderlayer="true">
    <inkscape:grid
       type="xygrid"
       id="grid2985"
       empspacing="5"
       visible="true"
       enabled="true"
       snapvisiblegridlinesonly="true" />
  </sodipodi:namedview>
  <metadata
     id="metadata7">
    <rdf:RDF>
      <cc:Work
         rdf:about="">
        <dc:format>image/svg+xml</dc:format>
        <dc:type
           rdf:resource="http://purl.org/dc/dcmitype/StillImage" />
        <dc:title></dc:title>
      </cc:Work>
    </rdf:RDF>
  </metadata>
  <g
     inkscape:groupmode="layer"
     id="layer3"
     inkscape:label="Shadow"
     style="display:inline">
    <path
       inkscape:connector-curvature="0"
       style="fill:#e8effc;fill-opacity:1;stroke:none;display:inline;filter:url(#filter4006)"
       d="m 3,3 0,1 0,2 0,1 0,2 0,1 0,2 9,-9 -9,0 z M 14,3 2,15 4,15 16,3 14,3 z m 0,4 -2,2 3,0 0,-2 -1,0 z m -3,3 -2,2 6,0 0,-2 -4,0 z m -3,3 -2,2 9,0 0,-2 -7,0 z"
       id="path3969-8" />
  </g>
  <g
     inkscape:label="Layer 1"
     inkscape:groupmode="layer"
     id="layer1"
     transform="translate(0,-1036.3622)"
     style="display:inline">
    <path
       style="fill:#8492b4;fill-opacity:1;stroke:none"
       d="M 2,2 2,3 2,5 2,6 2,8 2,9 2,11 11,2 2,2 z M 13,2 1,14 3,14 15,2 13,2 z m 0,4 -2,2 3,0 0,-2 -1,0 z m -3,3 -2,2 6,0 0,-2 -4,0 z m -3,3 -2,2 9,0 0,-2 -7,0 z"
       transform="translate(0,1036.3622)"
       id="path3969"
       inkscape:connector-curvature="0" />
  </g>
</svg>
