<?xml version="1.0" encoding="UTF-8" standalone="no"?>
<!-- Created with Inkscape (http://www.inkscape.org/) -->

<svg
   xmlns:dc="http://purl.org/dc/elements/1.1/"
   xmlns:cc="http://creativecommons.org/ns#"
   xmlns:rdf="http://www.w3.org/1999/02/22-rdf-syntax-ns#"
   xmlns:svg="http://www.w3.org/2000/svg"
   xmlns="http://www.w3.org/2000/svg"
   xmlns:sodipodi="http://sodipodi.sourceforge.net/DTD/sodipodi-0.dtd"
   xmlns:inkscape="http://www.inkscape.org/namespaces/inkscape"
   width="16"
   height="16"
   id="svg2"
   version="1.1"
   inkscape:version="0.48.1 r9760"
   sodipodi:docname="all-none.svg"
   inkscape:export-filename="/home/panzi/src/html/magnatune/current.png"
   inkscape:export-xdpi="90"
   inkscape:export-ydpi="90">
  <defs
     id="defs4">
    <inkscape:path-effect
       effect="spiro"
       id="path-effect3875"
       is_visible="true" />
    <filter
       inkscape:collect="always"
       id="filter3842"
       x="-0.15345"
       width="1.3069"
       y="-0.16368"
       height="1.32736">
      <feGaussianBlur
         inkscape:collect="always"
         stdDeviation="0.76725"
         id="feGaussianBlur3844" />
    </filter>
    <filter
       inkscape:collect="always"
       id="filter3963"
       x="-0.1518"
       width="1.3036"
       y="-0.1656"
       height="1.3312">
      <feGaussianBlur
         inkscape:collect="always"
         stdDeviation="0.759"
         id="feGaussianBlur3965" />
    </filter>
  </defs>
  <sodipodi:namedview
     id="base"
     pagecolor="#ffffff"
     bordercolor="#666666"
     borderopacity="1.0"
     inkscape:pageopacity="0.0"
     inkscape:pageshadow="2"
     inkscape:zoom="16"
     inkscape:cx="7.76312"
     inkscape:cy="3.9267771"
     inkscape:document-units="px"
     inkscape:current-layer="layer3"
     showgrid="true"
     showborder="true"
     inkscape:window-width="1084"
     inkscape:window-height="964"
     inkscape:window-x="226"
     inkscape:window-y="0"
     inkscape:window-maximized="0"
     borderlayer="true">
    <inkscape:grid
       type="xygrid"
       id="grid2985"
       empspacing="5"
       visible="true"
       enabled="true"
       snapvisiblegridlinesonly="true" />
  </sodipodi:namedview>
  <metadata
     id="metadata7">
    <rdf:RDF>
      <cc:Work
         rdf:about="">
        <dc:format>image/svg+xml</dc:format>
        <dc:type
           rdf:resource="http://purl.org/dc/dcmitype/StillImage" />
        <dc:title></dc:title>
      </cc:Work>
    </rdf:RDF>
  </metadata>
  <g
     inkscape:groupmode="layer"
     id="layer3"
     inkscape:label="Shadow"
     style="display:inline">
    <path
       style="color:#000000;fill:#e8effc;fill-opacity:1;fill-rule:nonzero;stroke:none;stroke-width:2;marker:none;visibility:visible;display:inline;overflow:visible;filter:url(#filter3963);enable-background:accumulate"
       d="m 3,4 0,5 c 2,3 5,3 7,3 l 0,3 4,-5 -4,-5 0,3 C 8,8 5,7 3,4 z M 4.375,4 C 5.104497,4.7832438 5.8633299,5.4804215 6.59375,6 L 9,6 9,4 4.375,4 z M 10.5,4 12,6 15,6 15,4 10.5,4 z m 2.25,3 1.5,2 0.75,0 0,-2 -2.25,0 z m 2.25,3 -1.5,2 1.5,0 0,-2 z M 3,11.1875 3,12 4.09375,12 C 3.7178862,11.778844 3.3502216,11.519026 3,11.1875 z M 3,13 l 0,2 6,0 0,-2 -6,0 z m 9.75,0 -1.5,2 3.75,0 0,-2 -2.25,0 z"
       id="rect3865-2"
       inkscape:connector-curvature="0" />
  </g>
  <g
     inkscape:label="Layer 1"
     inkscape:groupmode="layer"
     id="layer1"
     transform="translate(0,-1036.3622)"
     style="display:inline">
    <path
       style="color:#000000;fill:#8492b4;fill-opacity:1;fill-rule:nonzero;stroke:none;stroke-width:2;marker:none;visibility:visible;display:inline;overflow:visible;enable-background:accumulate"
       d="M 3.375,3 C 4.104497,3.7832438 4.8633299,4.4804215 5.59375,5 L 8,5 8,3 3.375,3 z M 9.5,3 11,5 14,5 14,3 9.5,3 z m 2.25,3 1.5,2 L 14,8 14,6 11.75,6 z M 14,9 12.5,11 14,11 14,9 z M 2,10.1875 2,11 3.09375,11 C 2.7178862,10.778844 2.3502216,10.519026 2,10.1875 z M 2,12 l 0,2 6,0 0,-2 -6,0 z m 9.75,0 -1.5,2 3.75,0 0,-2 -2.25,0 z"
       id="rect3865"
       inkscape:connector-curvature="0"
       transform="translate(0,1036.3622)" />
    <path
       style="fill:#6789e6;fill-opacity:1;stroke:none;display:inline"
       d="m 2,1039.3622 0,5 c 2,3 5,3 7,3 l 0,3 4,-5 -4,-5 0,3 c -2,0 -5,-1 -7,-4 z"
       id="path3877-1"
       inkscape:connector-curvature="0"
       sodipodi:nodetypes="cccccccc" />
  </g>
</svg>
