<?xml version="1.0" encoding="UTF-8" standalone="no"?>
<!-- Created with Inkscape (http://www.inkscape.org/) -->

<svg
   xmlns:dc="http://purl.org/dc/elements/1.1/"
   xmlns:cc="http://creativecommons.org/ns#"
   xmlns:rdf="http://www.w3.org/1999/02/22-rdf-syntax-ns#"
   xmlns:svg="http://www.w3.org/2000/svg"
   xmlns="http://www.w3.org/2000/svg"
   xmlns:sodipodi="http://sodipodi.sourceforge.net/DTD/sodipodi-0.dtd"
   xmlns:inkscape="http://www.inkscape.org/namespaces/inkscape"
   width="16"
   height="16"
   id="svg2"
   version="1.1"
   inkscape:version="0.48.1 r9760"
   sodipodi:docname="remove.svg"
   inkscape:export-filename="/home/panzi/src/html/magnatune/remove.png"
   inkscape:export-xdpi="90"
   inkscape:export-ydpi="90">
  <defs
     id="defs4">
    <filter
       inkscape:collect="always"
       id="filter3850"
       x="-0.15345"
       width="1.3069"
       y="-0.16368"
       height="1.32736">
      <feGaussianBlur
         inkscape:collect="always"
         stdDeviation="0.76725"
         id="feGaussianBlur3852" />
    </filter>
    <filter
       inkscape:collect="always"
       id="filter3842"
       x="-0.15345"
       width="1.3069"
       y="-0.16368"
       height="1.32736">
      <feGaussianBlur
         inkscape:collect="always"
         stdDeviation="0.76725"
         id="feGaussianBlur3844" />
    </filter>
  </defs>
  <sodipodi:namedview
     id="base"
     pagecolor="#ffffff"
     bordercolor="#666666"
     borderopacity="1.0"
     inkscape:pageopacity="0.0"
     inkscape:pageshadow="2"
     inkscape:zoom="22.627417"
     inkscape:cx="3.2836091"
     inkscape:cy="1.3775382"
     inkscape:document-units="px"
     inkscape:current-layer="layer3"
     showgrid="true"
     showborder="true"
     inkscape:window-width="1084"
     inkscape:window-height="964"
     inkscape:window-x="105"
     inkscape:window-y="0"
     inkscape:window-maximized="0"
     borderlayer="true">
    <inkscape:grid
       type="xygrid"
       id="grid2985"
       empspacing="5"
       visible="true"
       enabled="true"
       snapvisiblegridlinesonly="true" />
  </sodipodi:namedview>
  <metadata
     id="metadata7">
    <rdf:RDF>
      <cc:Work
         rdf:about="">
        <dc:format>image/svg+xml</dc:format>
        <dc:type
           rdf:resource="http://purl.org/dc/dcmitype/StillImage" />
        <dc:title />
      </cc:Work>
    </rdf:RDF>
  </metadata>
  <g
     inkscape:groupmode="layer"
     id="layer3"
     inkscape:label="Shadow"
     style="display:inline">
    <path
       style="color:#000000;fill:#e8effc;fill-opacity:1;fill-rule:nonzero;stroke:none;stroke-width:2;marker:none;visibility:visible;display:inline;overflow:visible;filter:url(#filter3842);enable-background:accumulate"
       d="M 5,4 5,6 6.09375,6 6.75,5.34375 7.40625,6 11.75,6 12.40625,5.34375 13,5.9375 13,4 5,4 z M 6.75,6.75 5.34375,8.15625 8.15625,11 5.34375,13.84375 6.75,15.25 9.59375,12.40625 12.40625,15.25 13.84375,13.84375 11,11 13.84375,8.15625 12.40625,6.75 9.59375,9.59375 6.75,6.75 z M 3,7 3,15 5.09375,15 3.9375,13.84375 6.75,11 3.9375,8.15625 5.09375,7 3,7 z M 8.4375,7 9.59375,8.15625 10.75,7 8.4375,7 z M 14.09375,7 15,7.90625 15,7 14.09375,7 z M 15,8.40625 12.40625,11 15,13.59375 15,8.40625 z M 9.59375,13.84375 8.4375,15 10.75,15 9.59375,13.84375 z M 15,14.09375 14.09375,15 15,15 15,14.09375 z"
       id="rect3759-4"
       inkscape:connector-curvature="0" />
  </g>
  <g
     inkscape:label="Layer 1"
     inkscape:groupmode="layer"
     id="layer1"
     transform="translate(0,-1036.3622)"
     style="display:inline"
     sodipodi:insensitive="true">
    <path
       style="color:#000000;fill:#8492b4;fill-opacity:1;fill-rule:nonzero;stroke:none;stroke-width:2;marker:none;visibility:visible;display:inline;overflow:visible;enable-background:accumulate"
       d="M 4,3 4,5 5.09375,5 5.75,4.34375 6.40625,5 10.75,5 11.40625,4.34375 12,4.9375 12,3 4,3 z M 2,6 2,14 4.09375,14 2.9375,12.84375 5.75,10 2.9375,7.15625 4.09375,6 2,6 z M 7.4375,6 8.59375,7.15625 9.75,6 7.4375,6 z M 13.09375,6 14,6.90625 14,6 13.09375,6 z M 14,7.40625 11.40625,10 14,12.59375 14,7.40625 z M 8.59375,12.84375 7.4375,14 9.75,14 8.59375,12.84375 z M 14,13.09375 13.09375,14 14,14 14,13.09375 z"
       transform="translate(0,1036.3622)"
       id="rect3759"
       inkscape:connector-curvature="0" />
    <path
       style="color:#000000;fill:#b10000;fill-opacity:1;fill-rule:nonzero;stroke:none;stroke-width:2;marker:none;visibility:visible;display:inline;overflow:visible;enable-background:accumulate"
       d="m 11.414213,1042.1196 -2.8284266,2.8284 -2.8284271,-2.8284 -1.4142136,1.4142 2.8284271,2.8284 -2.8284271,2.8284 1.4142136,1.4142 2.8284271,-2.8284 2.8284266,2.8284 1.414214,-1.4142 L 10,1046.3622 l 2.828427,-2.8284 -1.414214,-1.4142 z"
       id="rect3779"
       inkscape:connector-curvature="0" />
  </g>
</svg>
