<?xml version="1.0" encoding="UTF-8" standalone="no"?>
<!-- Created with Inkscape (http://www.inkscape.org/) -->

<svg
   xmlns:dc="http://purl.org/dc/elements/1.1/"
   xmlns:cc="http://creativecommons.org/ns#"
   xmlns:rdf="http://www.w3.org/1999/02/22-rdf-syntax-ns#"
   xmlns:svg="http://www.w3.org/2000/svg"
   xmlns="http://www.w3.org/2000/svg"
   xmlns:sodipodi="http://sodipodi.sourceforge.net/DTD/sodipodi-0.dtd"
   xmlns:inkscape="http://www.inkscape.org/namespaces/inkscape"
   width="16"
   height="16"
   id="svg2"
   version="1.1"
   inkscape:version="0.48.1 r9760"
   sodipodi:docname="clear.svg"
   inkscape:export-filename="/home/panzi/src/html/magnatune/clear.png"
   inkscape:export-xdpi="90"
   inkscape:export-ydpi="90">
  <defs
     id="defs4">
    <filter
       inkscape:collect="always"
       id="filter3850"
       x="-0.15345"
       width="1.3069"
       y="-0.16368"
       height="1.32736">
      <feGaussianBlur
         inkscape:collect="always"
         stdDeviation="0.76725"
         id="feGaussianBlur3852" />
    </filter>
  </defs>
  <sodipodi:namedview
     id="base"
     pagecolor="#ffffff"
     bordercolor="#666666"
     borderopacity="1.0"
     inkscape:pageopacity="0.0"
     inkscape:pageshadow="2"
     inkscape:zoom="22.627417"
     inkscape:cx="8.9404633"
     inkscape:cy="1.3775382"
     inkscape:document-units="px"
     inkscape:current-layer="layer1"
     showgrid="true"
     showborder="true"
     inkscape:window-width="1084"
     inkscape:window-height="964"
     inkscape:window-x="305"
     inkscape:window-y="0"
     inkscape:window-maximized="0"
     borderlayer="true">
    <inkscape:grid
       type="xygrid"
       id="grid2985"
       empspacing="5"
       visible="true"
       enabled="true"
       snapvisiblegridlinesonly="true" />
  </sodipodi:namedview>
  <metadata
     id="metadata7">
    <rdf:RDF>
      <cc:Work
         rdf:about="">
        <dc:format>image/svg+xml</dc:format>
        <dc:type
           rdf:resource="http://purl.org/dc/dcmitype/StillImage" />
        <dc:title></dc:title>
      </cc:Work>
    </rdf:RDF>
  </metadata>
  <g
     inkscape:groupmode="layer"
     id="layer3"
     inkscape:label="Shadow">
    <path
       style="color:#000000;fill:#e8effc;fill-opacity:1;fill-rule:nonzero;stroke:none;stroke-width:2;marker:none;visibility:visible;display:inline;overflow:visible;filter:url(#filter3850);enable-background:accumulate"
       d="M 3,4 3,6 6.09375,6 6.75,5.34375 7.40625,6 11.75,6 12.40625,5.34375 13.0625,6 15,6 15,4 3,4 z M 6.75,6.75 5.34375,8.15625 8.15625,11 5.34375,13.84375 6.75,15.25 9.59375,12.40625 12.40625,15.25 13.84375,13.84375 11,11 13.84375,8.15625 12.40625,6.75 9.59375,9.59375 6.75,6.75 z M 3,7 3,9 4.78125,9 3.9375,8.15625 5.09375,7 3,7 z M 8.4375,7 9.59375,8.15625 10.75,7 8.4375,7 z M 14.09375,7 15,7.90625 15,7 14.09375,7 z M 15,8.40625 14.40625,9 15,9 15,8.40625 z M 3,10 l 0,2 2.75,0 1,-1 -1,-1 L 3,10 z m 10.40625,0 -1,1 1,1 L 15,12 15,10 13.40625,10 z M 3,13 3,15 5.09375,15 3.9375,13.84375 4.78125,13 3,13 z M 14.40625,13 15,13.59375 15,13 14.40625,13 z M 9.59375,13.84375 8.4375,15 10.75,15 9.59375,13.84375 z M 15,14.09375 14.09375,15 15,15 15,14.09375 z"
       id="rect2987-8"
       inkscape:connector-curvature="0" />
  </g>
  <g
     inkscape:label="Layer 1"
     inkscape:groupmode="layer"
     id="layer1"
     transform="translate(0,-1036.3622)"
     style="display:inline">
    <path
       style="color:#000000;fill:#8492b4;fill-opacity:1;fill-rule:nonzero;stroke:none;stroke-width:2;marker:none;visibility:visible;display:inline;overflow:visible;enable-background:accumulate"
       d="m 2,1039.3622 0,2 3.09375,0 0.65625,-0.6562 0.65625,0.6562 4.34375,0 0.65625,-0.6562 0.65625,0.6562 1.9375,0 0,-2 -12,0 z m 0,3 0,2 1.78125,0 -0.84375,-0.8437 1.15625,-1.1563 -2.09375,0 z m 5.4375,0 1.15625,1.1563 1.15625,-1.1563 -2.3125,0 z m 5.65625,0 0.90625,0.9063 0,-0.9063 -0.90625,0 z m 0.90625,1.4063 -0.59375,0.5937 0.59375,0 0,-0.5937 z m -12,1.5937 0,2 2.75,0 1,-1 -1,-1 -2.75,0 z m 10.40625,0 -1,1 1,1 1.59375,0 0,-2 -1.59375,0 z m -10.40625,3 0,2 2.09375,0 -1.15625,-1.1562 0.84375,-0.8438 -1.78125,0 z m 11.40625,0 0.59375,0.5938 0,-0.5938 -0.59375,0 z m -4.8125,0.8438 -1.15625,1.1562 2.3125,0 -1.15625,-1.1562 z m 5.40625,0.25 -0.90625,0.9062 0.90625,0 0,-0.9062 z"
       id="rect2987"
       inkscape:connector-curvature="0" />
    <path
       style="color:#000000;fill:#b10000;fill-opacity:1;fill-rule:nonzero;stroke:none;stroke-width:2;marker:none;visibility:visible;display:inline;overflow:visible;enable-background:accumulate"
       d="m 11.414213,1042.1196 -2.828427,2.8284 -2.8284271,-2.8284 -1.4142136,1.4142 2.8284271,2.8284 -2.8284271,2.8284 1.4142136,1.4142 2.8284271,-2.8284 2.828427,2.8284 1.414214,-1.4142 L 10,1046.3622 l 2.828427,-2.8284 -1.414214,-1.4142 z"
       id="rect3776"
       inkscape:connector-curvature="0" />
  </g>
</svg>
