<?xml version="1.0" encoding="UTF-8" standalone="no"?>
<!-- Created with Inkscape (http://www.inkscape.org/) -->

<svg
   xmlns:dc="http://purl.org/dc/elements/1.1/"
   xmlns:cc="http://creativecommons.org/ns#"
   xmlns:rdf="http://www.w3.org/1999/02/22-rdf-syntax-ns#"
   xmlns:svg="http://www.w3.org/2000/svg"
   xmlns="http://www.w3.org/2000/svg"
   xmlns:sodipodi="http://sodipodi.sourceforge.net/DTD/sodipodi-0.dtd"
   xmlns:inkscape="http://www.inkscape.org/namespaces/inkscape"
   width="16"
   height="16"
   id="svg2"
   version="1.1"
   inkscape:version="0.48.1 r9760"
   sodipodi:docname="playlists.svg"
   inkscape:export-filename="/home/panzi/src/html/magnatune/playlists.png"
   inkscape:export-xdpi="90"
   inkscape:export-ydpi="90">
  <defs
     id="defs4">
    <inkscape:path-effect
       effect="spiro"
       id="path-effect3875"
       is_visible="true" />
    <filter
       inkscape:collect="always"
       id="filter4006"
       x="-0.14708571"
       width="1.2941714"
       y="-0.1716"
       height="1.3432">
      <feGaussianBlur
         inkscape:collect="always"
         stdDeviation="0.858"
         id="feGaussianBlur4008" />
    </filter>
    <filter
       inkscape:collect="always"
       id="filter3829"
       x="-0.1518"
       width="1.3036"
       y="-0.1656"
       height="1.3312">
      <feGaussianBlur
         inkscape:collect="always"
         stdDeviation="0.759"
         id="feGaussianBlur3831" />
    </filter>
  </defs>
  <sodipodi:namedview
     id="base"
     pagecolor="#ffffff"
     bordercolor="#666666"
     borderopacity="1.0"
     inkscape:pageopacity="0.0"
     inkscape:pageshadow="2"
     inkscape:zoom="16"
     inkscape:cx="-0.23688"
     inkscape:cy="3.9267771"
     inkscape:document-units="px"
     inkscape:current-layer="layer3"
     showgrid="true"
     showborder="true"
     inkscape:window-width="1084"
     inkscape:window-height="964"
     inkscape:window-x="359"
     inkscape:window-y="25"
     inkscape:window-maximized="0"
     borderlayer="true">
    <inkscape:grid
       type="xygrid"
       id="grid2985"
       empspacing="5"
       visible="true"
       enabled="true"
       snapvisiblegridlinesonly="true" />
  </sodipodi:namedview>
  <metadata
     id="metadata7">
    <rdf:RDF>
      <cc:Work
         rdf:about="">
        <dc:format>image/svg+xml</dc:format>
        <dc:type
           rdf:resource="http://purl.org/dc/dcmitype/StillImage" />
        <dc:title></dc:title>
      </cc:Work>
    </rdf:RDF>
  </metadata>
  <g
     inkscape:groupmode="layer"
     id="layer3"
     inkscape:label="Shadow"
     style="display:inline">
    <path
       inkscape:connector-curvature="0"
       style="color:#000000;fill:#e8effc;fill-opacity:1;fill-rule:nonzero;stroke:none;stroke-width:2;marker:none;visibility:visible;display:inline;overflow:visible;enable-background:accumulate;filter:url(#filter3829)"
       d="M 3,4 3,6 15,6 15,4 3,4 z M 3,7 3,9 8,9 15,9 15,7 3,7 z m 0,3 0,2 6.34375,0 L 8.4375,10 3,10 z m 7,0 2,5 2,-5 -4,0 z M 15,11.25 14.65625,12 15,12 15,11.25 z M 3,13 3,15 10.65625,15 9.78125,13 3,13 z m 11.21875,0 -0.875,2 1.65625,0 0,-2 -0.78125,0 z"
       id="rect3761-6" />
  </g>
  <g
     inkscape:label="Layer 1"
     inkscape:groupmode="layer"
     id="layer1"
     transform="translate(0,-1036.3622)"
     style="display:inline"
     sodipodi:insensitive="true">
    <path
       style="color:#000000;fill:#8492b4;fill-opacity:1;fill-rule:nonzero;stroke:none;stroke-width:2;marker:none;visibility:visible;display:inline;overflow:visible;enable-background:accumulate"
       d="M 2,3 2,5 14,5 14,3 2,3 z M 2,6 2,8 7,8 14,8 14,6 2,6 z M 2,9 2,11 8.34375,11 7.4375,9 2,9 z m 7,0 2,5 2,-5 -4,0 z M 14,10.25 13.65625,11 14,11 14,10.25 z M 2,12 2,14 9.65625,14 8.78125,12 2,12 z m 11.21875,0 -0.875,2 1.65625,0 0,-2 -0.78125,0 z"
       transform="translate(0,1036.3622)"
       id="rect3761"
       inkscape:connector-curvature="0" />
  </g>
</svg>
